# xmcd
#
# Track frame offsets: 
#        150
#        7776
#        20207
#        31832
#        44612
#        59417
#        73414
#        83577
#        94590
#        108372
#        117125
#        126612
#        137124
#        147551
#        160985
#        175578
#        188277
#        201312
#        210950
#        224141
#        233784
#        245816
#        254810
#        261938
#        272091
#        278977
#        291620
#        303637
#        310324
#        321218
#        336521
#        347953
#
# Disc length: 4765 seconds
#
# Revision: 0
# Processed by: cddbd v1.5.2PL0 Copyright (c) Steve Scherf et al.
# Submitted via: ExactAudioCopy v1.0b3
#
DISCID=09129b20
DTITLE=Toomas Anni - Jaanipäeva megamix
DYEAR=2009
DGENRE=Pop
TTITLE0=Ma tahaksin kodus olla
TTITLE1=Toomemäel
TTITLE2=Täna öösel
TTITLE3=Tüdruk
TTITLE4=Las mööduvad aastad
TTITLE5=Kord Biskaia lahel
TTITLE6=Viljandi paadimees
TTITLE7=Hulkuri valss
TTITLE8=Oo millal ma saaksin
TTITLE9=Kui tuled sa
TTITLE10=Valged roosid
TTITLE11=Laev tõstis purjed
TTITLE12=Suveöö
TTITLE13=Vana vokk
TTITLE14=Viimane ratsu
TTITLE15=Ära iial kurvasta
TTITLE16=Truudus, juhuse puudus
TTITLE17=Jambolaya
TTITLE18=Valge tuvi (Paloma blanca)
TTITLE19=Õitsevad puud
TTITLE20=Kes võib noorust keelata
TTITLE21=Kui naene minno pahandas
TTITLE22=Oi, noorus!
TTITLE23=Viina joo!
TTITLE24=Mulgimaale
TTITLE25=Autoraadio
TTITLE26=Sinu süda on kui Emajõgi
TTITLE27=Tõmba Jüri!
TTITLE28=Marina
TTITLE29=Ilmas kui pulmas
TTITLE30=Kallis neiu
TTITLE31=Tiina ja Marina
EXTD=
EXTT0=
EXTT1=
EXTT2=
EXTT3=
EXTT4=
EXTT5=
EXTT6=
EXTT7=
EXTT8=
EXTT9=
EXTT10=
EXTT11=
EXTT12=
EXTT13=
EXTT14=
EXTT15=
EXTT16=
EXTT17=
EXTT18=
EXTT19=
EXTT20=
EXTT21=
EXTT22=
EXTT23=
EXTT24=
EXTT25=
EXTT26=
EXTT27=
EXTT28=
EXTT29=
EXTT30=
EXTT31=
PLAYORDER=
